<?xml version="1.0" standalone="no"?>
<!DOCTYPE svg PUBLIC "-//W3C//DTD SVG 20010904//EN"
 "http://www.w3.org/TR/2001/REC-SVG-20010904/DTD/svg10.dtd">
<svg version="1.0" xmlns="http://www.w3.org/2000/svg"
 width="640.000000pt" height="439.000000pt" viewBox="0 0 640.000000 439.000000"
 preserveAspectRatio="xMidYMid meet">

<g transform="translate(0.000000,439.000000) scale(0.100000,-0.100000)"
fill="#000000" stroke="none">
<path d="M3610 3878 c-84 -282 -156 -517 -160 -521 -4 -5 -42 89 -85 207 -43
119 -79 216 -80 216 -1 0 -42 -110 -91 -245 -48 -135 -91 -245 -94 -245 -3 0
-73 218 -155 485 -83 267 -152 485 -155 485 -3 0 -54 -186 -114 -413 -60 -226
-115 -433 -123 -459 l-14 -48 -222 198 c-122 108 -231 204 -241 212 -19 15
-19 7 -12 -302 4 -205 3 -318 -3 -318 -5 0 -82 31 -170 69 l-161 69 0 -79 c0
-44 -4 -79 -10 -79 -5 0 -213 43 -462 95 -248 52 -453 95 -455 95 -1 0 62 -75
141 -167 79 -93 227 -267 330 -388 l187 -220 -180 -45 c-99 -25 -183 -48 -186
-52 -9 -9 60 -58 187 -131 59 -34 108 -65 108 -68 0 -10 -362 -100 -1005 -249
-209 -48 -373 -90 -365 -93 8 -3 204 -24 435 -47 231 -23 557 -57 725 -76 168
-19 308 -34 313 -34 20 0 0 -38 -69 -127 -72 -91 -279 -337 -318 -376 -11 -11
-13 -17 -5 -17 6 0 135 32 286 71 151 38 277 69 279 66 2 -2 -39 -214 -91
-472 -53 -257 -94 -470 -92 -472 11 -10 235 179 555 470 84 77 155 138 156
136 2 -2 -5 -96 -15 -209 -10 -112 -17 -205 -15 -207 1 -1 130 40 286 92 156
52 286 93 288 90 3 -3 22 -117 42 -255 20 -137 39 -252 41 -255 3 -2 105 126
227 286 l221 290 98 -140 c54 -77 100 -140 103 -141 3 0 41 49 85 110 44 60
82 110 85 110 3 0 79 -133 170 -296 91 -162 166 -287 168 -277 6 47 72 624 72
635 0 7 74 -61 164 -151 147 -147 164 -161 169 -140 3 13 18 95 33 182 16 86
31 157 34 157 3 0 144 -198 315 -441 170 -243 311 -437 312 -433 2 5 -33 205
-76 444 -43 239 -78 436 -76 438 1 1 98 -43 216 -99 309 -146 433 -200 438
-187 3 10 -220 465 -343 696 l-65 123 27 10 c15 6 118 42 230 79 112 38 210
73 219 78 12 7 -18 44 -157 186 -95 97 -171 179 -168 182 3 2 245 74 538 159
294 86 535 156 536 158 2 2 -225 43 -504 91 -279 49 -508 89 -510 91 -1 1 31
93 73 204 41 111 75 204 75 207 0 3 -82 3 -181 -1 -152 -6 -180 -5 -173 6 4 7
138 193 297 412 158 220 287 401 285 403 -2 1 -107 -55 -233 -125 -382 -212
-769 -426 -777 -429 -5 -2 -8 118 -8 267 l0 271 -237 -215 -238 -215 -8 107
c-4 60 -11 145 -15 191 l-7 83 -167 -110 c-155 -101 -168 -108 -173 -88 -2 12
-32 231 -66 487 -33 256 -62 466 -64 468 -1 1 -71 -228 -155 -510z m-212 -842
c5 -3 130 -227 278 -498 l269 -492 10 456 10 457 29 30 c34 36 54 38 138 14
l61 -18 -6 -270 c-11 -442 -45 -1052 -68 -1195 -16 -99 -16 -100 -150 -59
l-66 21 -178 376 c-98 207 -184 388 -192 402 l-14 25 6 -25 c3 -14 35 -139 70
-278 36 -139 74 -318 86 -399 l21 -146 -25 -22 c-23 -22 -27 -23 -103 -13 -44
6 -80 12 -81 12 -1 1 -92 357 -203 791 -111 435 -203 798 -206 807 -8 28 48
38 183 34 67 -2 126 -6 131 -10z m-1153 -151 c84 -22 152 -63 191 -114 45 -58
57 -103 53 -192 -3 -59 -11 -89 -37 -141 -38 -78 -127 -166 -196 -194 -25 -11
-46 -21 -46 -24 0 -3 13 -13 29 -23 15 -9 51 -37 79 -62 139 -125 160 -333 56
-525 -72 -131 -189 -250 -329 -334 -32 -19 -60 -34 -61 -33 -8 8 -404 1542
-401 1551 6 15 158 61 281 86 116 23 300 26 381 5z m648 -185 c5 -4 21 -68 37
-141 16 -74 64 -285 108 -469 131 -546 182 -820 182 -972 l0 -78 -105 0 -104
0 -10 38 c-5 20 -16 63 -25 95 -21 85 -37 103 -96 116 -106 23 -131 13 -156
-61 -23 -71 -50 -124 -67 -131 -13 -5 -144 46 -160 62 -9 9 97 713 159 1061
31 170 97 492 109 527 3 9 21 5 62 -13 32 -14 62 -29 66 -34z m1941 1 c128
-64 245 -216 262 -343 10 -74 -22 -108 -116 -122 -25 -4 -57 -9 -71 -12 -24
-5 -27 -2 -33 38 -18 117 -75 208 -131 208 -93 0 -193 -127 -240 -305 -36
-139 -29 -384 16 -520 44 -132 130 -216 189 -184 36 20 62 81 68 158 4 61 2
69 -22 98 -15 18 -35 34 -45 38 -15 5 -17 12 -10 53 4 26 8 53 8 60 1 9 39 12
157 12 l155 0 -6 -57 c-4 -32 -17 -113 -30 -179 -98 -511 -396 -615 -598 -209
-185 372 -128 963 118 1211 100 101 202 118 329 55z"/>
<path d="M1856 2585 c-7 -29 8 -105 30 -147 42 -81 105 -98 194 -53 88 45 129
128 96 193 l-17 32 -148 0 -149 0 -6 -25z"/>
<path d="M2028 1908 c-16 -5 -28 -16 -28 -23 0 -8 19 -66 41 -130 l42 -117 39
5 c21 3 50 12 63 21 82 54 84 187 3 236 -36 22 -112 26 -160 8z"/>
<path d="M2818 1870 c-21 -13 -25 -35 -38 -205 -13 -165 -13 -165 87 -165 78
0 92 16 69 84 -9 25 -25 93 -37 153 -18 95 -38 144 -58 143 -3 0 -14 -5 -23
-10z"/>
</g>
</svg>
